<svg id="Layer_1" data-name="Layer 1" xmlns="http://www.w3.org/2000/svg" width="1924.172" height="1966.456"
  viewBox="0 0 1924.172 1966.456">
  <defs>
    <style>
      .cls-1 {
        fill: #ffffff;
      }
    </style>
  </defs>
  <g>
    <g>
      <path class="cls-1"
        d="M1703.646,1181.623h.014c-3.44-5.471-7.064-10.779-10.666-16.089a851.841,851.841,0,0,0,52.313-294.886c0-471.623-382.263-853.86-853.926-853.86C419.78,16.788,37.5,399.025,37.5,870.648c0,443.117,337.52,807.339,769.5,849.72,2.719,4.614,5.353,9.254,8.225,13.815l13.455-8.466-13.455,8.466c75.914,120.6,190.525,204.27,322.72,235.612a497.451,497.451,0,0,0,114.865,13.45c96.019,0,191.541-27.793,277.219-81.751,120.94-76.1,205.716-191.554,238.725-325.081C1802.11,1441.491,1778.993,1301.283,1703.646,1181.623ZM1554.453,951.354c57.753,0,104.811,47.77,104.811,106.66a107.695,107.695,0,0,1-29.874,74.419,103.592,103.592,0,0,1-74.937,32.231c-57.992,0-104.895-47.766-104.895-106.65a107.19,107.19,0,0,1,31.733-76.365A103.617,103.617,0,0,1,1554.453,951.354Zm-787.53,474.8c10.7-151.494,93.275-296.219,236.535-386.388,91.629-57.7,195.3-83.6,298.08-75.51a602.909,602.909,0,0,1-70.671,171.717c89.971,19.344,157.735,101.13,157.735,198.811,0,111.989-89.109,203.1-198.635,203.1-101.31,0-185.1-77.928-197.14-178.227A602.752,602.752,0,0,1,766.923,1426.15ZM711.611,215.241c187.692,0,355.473,85.251,466.78,219.126a581.023,581.023,0,0,1-14.519,90.884C1127.041,677.192,1031.73,808.1,895.529,893.862c-99.6,62.689-207.467,92.8-313.1,92.8-181.477-.016-356.264-88.975-470.914-254.331C154.832,439.759,407,215.241,711.611,215.241ZM104.9,821.95q0-22.629,1.659-44.854c120.393,156.418,294.777,240.19,475.489,240.177,111.2-.013,224.8-31.718,329.655-97.717,142.935-90,242.974-227.494,281.679-387.153a618.258,618.258,0,0,0,11.849-63.285,606.876,606.876,0,0,1,102.66,465.241c-110.569-9.621-222.179,17.731-320.617,79.7-153.2,96.428-240.916,251.771-251.027,414.054-8.172.33-16.379.558-24.639.558C376.536,1428.67,104.9,1157.051,104.9,821.95Zm1634.379,747.17c-31.114,125.862-111.171,234.776-225.435,306.684-113,71.155-244,94.061-368.9,64.443C1022.472,1911.218,916,1834.2,844.368,1723.2q23.341,1.267,47.013,1.306c354.831,0,659.038-216.368,787.982-524.345C1749.1,1312.27,1770.417,1443.167,1739.282,1569.12Z"
        transform="translate(-37.504 -16.788)" />
      <path class="cls-1"
        d="M1189.967,1507.509c92.786,0,168.27-77.475,168.27-172.729,0-87.24-63.305-159.552-145.205-171.137a609.871,609.871,0,0,1-191.167,179.762C1026.254,1434.656,1099.974,1507.509,1189.967,1507.509Z"
        transform="translate(-37.504 -16.788)" />
    </g>
    <path class="cls-1"
      d="M1795.3,1208.36c0,45.624,37.139,82.578,83.233,82.578,45.808,0,83.141-36.954,83.141-82.578,0-45.513-37.333-82.449-83.141-82.449-46.094,0-83.233,36.936-83.233,82.449"
      transform="translate(-37.504 -16.788)" />
  </g>
</svg>